<?xml version="1.0" standalone="no"?>
<!DOCTYPE svg PUBLIC "-//W3C//DTD SVG 20010904//EN"
 "http://www.w3.org/TR/2001/REC-SVG-20010904/DTD/svg10.dtd">
<svg version="1.0" xmlns="http://www.w3.org/2000/svg"
 width="315.000000pt" height="315.000000pt" viewBox="0 0 315.000000 315.000000"
 preserveAspectRatio="xMidYMid meet">
<metadata>
Created by potrace 1.15, written by Peter Selinger 2001-2017
</metadata>
<g transform="translate(0.000000,315.000000) scale(0.100000,-0.100000)"
fill="#000000" stroke="none">
<path d="M1547 3099 c-49 -88 -508 -971 -505 -974 2 -1 122 60 267 136 l264
139 251 -131 c138 -73 259 -136 269 -141 16 -8 16 -5 -4 34 -49 98 -474 906
-494 942 l-23 38 -25 -43z"/>
<path d="M513 1847 c-276 -144 -503 -264 -503 -267 0 -6 1011 -542 1015 -538
1 2 -60 122 -135 268 l-138 265 115 225 c64 124 127 244 140 268 14 23 21 42
16 41 -4 0 -234 -118 -510 -262z"/>
<path d="M2177 1999 c33 -63 97 -184 141 -269 l80 -155 -138 -265 c-76 -145
-138 -266 -136 -267 5 -6 1014 532 1010 538 -3 6 -977 515 -1008 528 -5 2 18
-48 51 -110z"/>
<path d="M1040 1026 c0 -8 519 -999 528 -1008 5 -5 127 218 272 494 145 277
265 507 268 511 5 9 -486 -240 -502 -254 -6 -5 -19 -9 -29 -9 -17 0 -189 86
-444 222 -51 27 -93 47 -93 44z"/>
</g>
</svg>
